<svg width="235" height="74" viewBox="0 0 235 74" fill="none" xmlns="http://www.w3.org/2000/svg">
<g clip-path="url(#clip0_3910_161879)">
<path d="M233.47 2.61374C228.52 1.25126 222.236 0 214.381 0C173.382 0 162.982 23.1622 161.3 38.8724C159.409 56.5151 171.616 73.8381 201.716 73.8242C214.381 73.8242 222.653 71.6136 225.601 70.6821C226.338 70.4458 226.894 69.8341 227.033 69.0694L228.729 60.1577C228.979 58.823 227.714 57.6969 226.421 58.1C223.154 59.1289 217.315 60.5608 209.932 60.5608C195.543 60.5608 185.157 51.9272 186.478 37.065C187.757 22.6756 197.461 11.7062 210.822 11.7062C218.858 11.7062 222.403 15.9049 222.139 21.5216C222.139 21.5216 222.139 21.6189 222.139 21.8414C222.083 22.8702 222.904 23.7322 223.932 23.7322H229.382C230.23 23.7322 230.953 23.1483 231.134 22.328L234.957 5.08845C235.208 3.99012 234.554 2.9057 233.47 2.59983V2.61374ZM63.841 2.65545L62.84 7.14607C62.6176 8.14707 63.2015 9.16198 64.1886 9.45394C65.9265 10.1213 66.3018 11.7896 64.8003 13.0409L39.6223 33.9647L43.9461 14.2504C44.6829 11.2196 47.0881 9.98225 48.6035 9.48175L48.8538 9.39833C49.5211 9.18979 50.0216 8.64758 50.1745 7.96634L51.2033 3.29498C51.4536 2.18275 50.6055 1.14003 49.4655 1.14003H17.0023C16.0847 1.14003 15.2923 1.77957 15.0976 2.66935L14.041 7.39632C13.8325 8.35562 14.3747 9.32882 15.3062 9.64858C15.4869 9.7181 15.612 9.7459 15.6259 9.75981C17.6697 10.5523 20.0192 12.3596 19.0321 17.0727L11.2882 52.5111C9.25842 62.1875 5.97735 64.1617 2.8492 64.5232H2.75189C1.91771 64.6205 1.22257 65.2461 1.04183 66.0664L0.040828 70.6126C-0.223326 71.7805 0.666457 72.8927 1.87601 72.8927H36.0075C36.8417 72.8927 37.5646 72.3088 37.7454 71.5024L38.9271 66.1915C39.1218 65.3295 38.6491 64.4536 37.8288 64.12C37.7593 64.0922 37.6898 64.0644 37.6063 64.0366C35.8824 63.3414 33.5189 61.8399 34.1167 59.0315L38.079 40.9161C51.6621 65.7605 56.1667 72.9066 72.4747 72.9066H87.1978C88.032 72.9066 88.755 72.3227 88.9357 71.5163L89.9645 66.9145C90.2287 65.7327 89.3528 64.6066 88.1432 64.5788C84.459 64.5232 82.6516 63.6751 78.9813 58.9481L60.0734 33.353L84.6536 12.9019C87.9486 10.3159 91.9804 9.59297 94.2049 9.30101L94.4273 9.27321C95.2059 9.18979 95.8454 8.63367 96.0262 7.86902L97.0272 3.32278C97.2774 2.19665 96.4154 1.12613 95.2615 1.12613H65.6901C64.7725 1.12613 63.994 1.76566 63.7854 2.65545H63.841ZM154.78 22.3419H160.522C161.356 22.3419 162.093 21.758 162.273 20.9377L166.18 3.30888C166.43 2.18275 165.582 1.12613 164.428 1.12613H103.965C103.047 1.12613 102.255 1.76566 102.046 2.65545L101.003 7.38242C100.795 8.30001 101.309 9.2315 102.199 9.55126C102.269 9.57907 102.338 9.59297 102.408 9.62078C104.396 10.3854 107.162 12.304 105.967 17.0449L94.1215 70.7099C93.8712 71.8222 94.7193 72.8788 95.8593 72.8788H123.053C123.887 72.8788 124.61 72.2949 124.791 71.4746L125.973 66.122C126.154 65.3295 125.737 64.5232 125 64.2034C124.916 64.1617 124.819 64.12 124.736 64.0783C123.012 63.2441 120.44 61.2838 121.302 57.53C121.399 57.0295 123.957 45.3789 123.957 45.3789H147.077C147.912 45.3789 148.648 44.795 148.829 43.9747L150.998 34.1732C151.248 33.0471 150.4 31.9905 149.246 31.9905H126.918L131.089 12.9853H146.688C151.735 12.9714 153.264 15.599 152.972 20.0896C152.972 20.0896 152.972 20.1452 152.944 20.326C152.833 21.3965 153.667 22.328 154.738 22.328L154.78 22.3419Z" fill="#E31F2E"/>
</g>
<defs>
<clipPath id="clip0_3910_161879">
<rect width="235" height="73.8242" fill="white"/>
</clipPath>
</defs>
</svg>
